<?xml version="1.0"?><svg width="616.97467" height="370.44733" xmlns="http://www.w3.org/2000/svg" xmlns:xlink="http://www.w3.org/1999/xlink">
 <title>gold music banner</title>
 <defs>
  <filter height="1.098476" y="-0.049238" width="1.221637" x="-0.110819" id="filter4432" color-interpolation-filters="sRGB">
   <feGaussianBlur id="feGaussianBlur4434" stdDeviation="0.216019"/>
  </filter>
  <filter id="filter4271" color-interpolation-filters="sRGB">
   <feGaussianBlur id="feGaussianBlur4273" stdDeviation="0.093572"/>
  </filter>
  <filter height="1.112102" y="-0.056051" width="1.248713" x="-0.124357" id="filter4442" color-interpolation-filters="sRGB">
   <feGaussianBlur id="feGaussianBlur4444" stdDeviation="0.298207"/>
  </filter>
  <filter id="filter4842" color-interpolation-filters="sRGB">
   <feGaussianBlur id="feGaussianBlur4844" stdDeviation="0.158751"/>
  </filter>
  <filter id="filter4452" color-interpolation-filters="sRGB">
   <feGaussianBlur id="feGaussianBlur4454" stdDeviation="0.187839"/>
  </filter>
  <filter id="filter4740" color-interpolation-filters="sRGB">
   <feGaussianBlur id="feGaussianBlur4742" stdDeviation="0.042205"/>
  </filter>
  <filter id="filter4183" color-interpolation-filters="sRGB">
   <feGaussianBlur id="feGaussianBlur4185" stdDeviation="0.175416"/>
  </filter>
  <filter height="1.263425" y="-0.131713" width="1.324796" x="-0.162398" id="filter4299" color-interpolation-filters="sRGB">
   <feGaussianBlur id="feGaussianBlur4301" stdDeviation="0.17036"/>
  </filter>
  <linearGradient id="linearGradient4737">
   <stop stop-color="#000000" offset="0" id="stop4739"/>
   <stop stop-color="#3a3414" id="stop4975" offset="0.028399"/>
   <stop stop-color="#746828" id="stop4973" offset="0.056799"/>
   <stop stop-color="#e8d050" id="stop4741" offset="0.113598"/>
   <stop stop-color="#602400" id="stop4743" offset="0.22677"/>
   <stop stop-color="#b87c00" id="stop4745" offset="0.642758"/>
   <stop stop-color="#c08400" id="stop4747" offset="0.841277"/>
   <stop stop-color="#fcfc80" offset="1" id="stop4749"/>
  </linearGradient>
  <filter id="filter4498" color-interpolation-filters="sRGB">
   <feGaussianBlur id="feGaussianBlur4500" stdDeviation="0.074687"/>
  </filter>
  <linearGradient id="linearGradient4391">
   <stop stop-color="#000000" id="stop4393" offset="0"/>
   <stop stop-color="#e8d050" offset="0.220549" id="stop4395"/>
   <stop stop-color="#602400" offset="0.397893" id="stop4397"/>
   <stop stop-color="#b87c00" offset="0.642758" id="stop4399"/>
   <stop stop-color="#c08400" offset="0.841277" id="stop4401"/>
   <stop stop-color="#fcfc80" id="stop4403" offset="1"/>
  </linearGradient>
  <linearGradient id="linearGradient4671">
   <stop stop-color="#000000" id="stop4673" offset="0"/>
   <stop stop-color="#3c0000" offset="0.0625" id="stop4685"/>
   <stop stop-color="#602400" offset="0.252902" id="stop4683"/>
   <stop stop-color="#b87c00" offset="0.687729" id="stop4681"/>
   <stop stop-color="#dcb830" offset="0.869035" id="stop4679"/>
   <stop stop-color="#fcfc80" id="stop4675" offset="1"/>
  </linearGradient>
  <linearGradient y2="196.87833" x2="114.07068" y1="198.92783" x1="112.6988" gradientUnits="userSpaceOnUse" id="linearGradient4806" xlink:href="#linearGradient4229"/>
  <linearGradient id="linearGradient4229">
   <stop stop-color="#000000" offset="0" id="stop4231"/>
   <stop stop-color="#fcfc80" offset="1" id="stop4241"/>
  </linearGradient>
  <linearGradient y2="196.91185" x2="114.30067" y1="198.85497" x1="113.3127" gradientUnits="userSpaceOnUse" id="linearGradient4808" xlink:href="#linearGradient4229"/>
  <filter id="filter4199" color-interpolation-filters="sRGB">
   <feGaussianBlur id="feGaussianBlur4201" stdDeviation="0.099925"/>
  </filter>
  <filter height="1.154669" y="-0.077334" width="1.24933" x="-0.124665" id="filter4470" color-interpolation-filters="sRGB">
   <feGaussianBlur id="feGaussianBlur4472" stdDeviation="0.421898"/>
  </filter>
  <filter id="filter4490" color-interpolation-filters="sRGB">
   <feGaussianBlur id="feGaussianBlur4492" stdDeviation="0.178034"/>
  </filter>
  <filter id="filter4407" color-interpolation-filters="sRGB">
   <feGaussianBlur id="feGaussianBlur4409" stdDeviation="0.177868"/>
  </filter>
  <filter height="1.087109" y="-0.043555" width="1.236157" x="-0.118078" id="filter4351" color-interpolation-filters="sRGB">
   <feGaussianBlur id="feGaussianBlur4353" stdDeviation="0.234097"/>
  </filter>
  <filter id="filter4414" color-interpolation-filters="sRGB">
   <feGaussianBlur id="feGaussianBlur4416" stdDeviation="0.173389"/>
  </filter>
  <linearGradient id="linearGradient4959">
   <stop stop-color="#000000" id="stop4961" offset="0"/>
   <stop stop-color="#000000" offset="0.017749" id="stop5003"/>
   <stop stop-color="#fcfc80" offset="0.035497" id="stop5001"/>
   <stop stop-color="#9c6000" offset="0.088189" id="stop4999"/>
   <stop stop-color="#fcfc80" offset="0.14199" id="stop4997"/>
   <stop stop-color="#d4a418" offset="0.219716" id="stop4995"/>
   <stop stop-color="#fcfc80" offset="0.269327" id="stop4993"/>
   <stop stop-color="#e0bc38" offset="0.297408" id="stop4991"/>
   <stop stop-color="#6c3000" offset="0.376045" id="stop4989"/>
   <stop stop-color="#8c5000" offset="0.436885" id="stop4987"/>
   <stop stop-color="#fcfc80" offset="0.491392" id="stop4985"/>
   <stop stop-color="#c48800" offset="0.537667" id="stop4983"/>
   <stop stop-color="#a46800" offset="0.600206" id="stop4981"/>
   <stop stop-color="#fcfc80" offset="0.643099" id="stop4979"/>
   <stop stop-color="#746828" offset="0.696092" id="stop4977"/>
   <stop stop-color="#804400" offset="0.764182" id="stop4963"/>
   <stop stop-color="#602400" offset="0.827884" id="stop4965"/>
   <stop stop-color="#b87c00" offset="0.888693" id="stop4967"/>
   <stop stop-color="#c08400" offset="0.942499" id="stop4969"/>
   <stop stop-color="#fcfc80" id="stop4971" offset="1"/>
  </linearGradient>
  <linearGradient id="linearGradient4846">
   <stop stop-color="#000000" offset="0" id="stop4848"/>
   <stop stop-color="#3c0000" id="stop4850" offset="0.14378"/>
   <stop stop-color="#602400" id="stop4852" offset="0.342301"/>
   <stop stop-color="#b87c00" id="stop4854" offset="0.554709"/>
   <stop stop-color="#dcb830" id="stop4856" offset="0.704683"/>
   <stop stop-color="#fcfc80" offset="1" id="stop4858"/>
  </linearGradient>
  <linearGradient id="linearGradient4319">
   <stop stop-color="#000000" id="stop4321" offset="0"/>
   <stop stop-color="#e8d050" offset="0.204225" id="stop4323"/>
   <stop stop-color="#602400" offset="0.460764" id="stop4325"/>
   <stop stop-color="#b87c00" offset="0.62046" id="stop4327"/>
   <stop stop-color="#c08400" offset="0.841277" id="stop4329"/>
   <stop stop-color="#fcfc80" id="stop4331" offset="1"/>
  </linearGradient>
  <linearGradient id="linearGradient4355">
   <stop stop-color="#000000" id="stop4357" offset="0"/>
   <stop stop-color="#e8d050" offset="0.230433" id="stop4359"/>
   <stop stop-color="#602400" offset="0.42179" id="stop4361"/>
   <stop stop-color="#b87c00" offset="0.563186" id="stop4363"/>
   <stop stop-color="#c08400" offset="0.64487" id="stop4365"/>
   <stop stop-color="#fcfc80" id="stop4367" offset="1"/>
  </linearGradient>
  <linearGradient id="linearGradient4369">
   <stop stop-color="#000000" offset="0" id="stop4371"/>
   <stop stop-color="#3c0000" id="stop4373" offset="0.097181"/>
   <stop stop-color="#ffdd55" id="stop4375" offset="0.234209"/>
   <stop stop-color="#b87c00" id="stop4377" offset="0.687729"/>
   <stop stop-color="#dcb830" id="stop4379" offset="0.869035"/>
   <stop stop-color="#fcfc80" offset="1" id="stop4381"/>
  </linearGradient>
  <linearGradient y2="446.86957" x2="615.66083" y1="447.71307" x1="616.19354" gradientTransform="matrix(13.858349,0,0,13.858349,-7883.8361,-5968.2237)" gradientUnits="userSpaceOnUse" id="linearGradient6397" xlink:href="#linearGradient4671"/>
  <linearGradient y2="450.82068" x2="609.88953" y1="455.26013" x1="613.13031" gradientTransform="matrix(13.858349,0,0,13.858349,-7881.7496,-5967.0314)" gradientUnits="userSpaceOnUse" id="linearGradient6400" xlink:href="#linearGradient4369"/>
  <linearGradient y2="453.93066" x2="605.29218" y1="459.3541" x1="607.50073" gradientTransform="matrix(13.858349,0,0,13.858349,-7882.1376,-5970.5234)" gradientUnits="userSpaceOnUse" id="linearGradient6403" xlink:href="#linearGradient4671"/>
  <linearGradient y2="448.95612" x2="599.27924" y1="458.37479" x1="601.91327" gradientTransform="matrix(13.858349,0,0,13.858349,-7884.4535,-5971.9885)" gradientUnits="userSpaceOnUse" id="linearGradient6406" xlink:href="#linearGradient4671"/>
  <linearGradient y2="452.77405" x2="596.12726" y1="454.68301" x1="597.90302" gradientTransform="matrix(13.858349,0,0,13.858349,-7883.7775,-5967.482)" gradientUnits="userSpaceOnUse" id="linearGradient6409" xlink:href="#linearGradient4671"/>
  <linearGradient y2="461.47534" x2="596.43799" y1="455.48212" x1="592.57568" gradientTransform="matrix(13.858349,0,0,13.858349,-7881.7496,-5967.0314)" gradientUnits="userSpaceOnUse" id="linearGradient6412" xlink:href="#linearGradient4355"/>
  <linearGradient y2="458.11649" x2="589.02045" y1="467.31567" x1="588.11359" gradientTransform="matrix(13.858349,0,0,13.858349,-7881.7496,-5967.0314)" gradientUnits="userSpaceOnUse" id="linearGradient6415" xlink:href="#linearGradient4319"/>
  <linearGradient y2="463.95483" x2="581.31793" y1="456.05984" x1="581.94275" gradientTransform="matrix(13.858349,0,0,13.858349,-7886.5809,-5966.8175)" gradientUnits="userSpaceOnUse" id="linearGradient6418" xlink:href="#linearGradient4737"/>
  <linearGradient y2="466.34735" x2="502.68976" y1="478.6749" x1="504.28778" gradientTransform="matrix(6.9858172,0,0,7.0742367,-3402.6964,-2888.8212)" gradientUnits="userSpaceOnUse" id="linearGradient6421" xlink:href="#linearGradient4846"/>
  <linearGradient y2="464.52185" x2="560.20251" y1="464.52185" x1="556.62091" gradientTransform="matrix(13.858349,0,0,13.858349,-7678.8238,-5949.7937)" gradientUnits="userSpaceOnUse" id="linearGradient6424" xlink:href="#linearGradient4671"/>
  <linearGradient y2="478.26358" x2="484.84412" y1="489.73514" x1="488.88116" gradientTransform="matrix(6.772463,0,0,6.7446058,-3290.3761,-2732.1881)" gradientUnits="userSpaceOnUse" id="linearGradient6433" xlink:href="#linearGradient4671"/>
  <linearGradient y2="480.14218" x2="486.88263" y1="489.45535" x1="490.40005" gradientTransform="matrix(6.6218451,0,0,6.6709035,-3217.2923,-2697.102)" gradientUnits="userSpaceOnUse" id="linearGradient6447" xlink:href="#linearGradient4671"/>
  <linearGradient y2="440.15985" x2="574.90991" y1="450.77658" x1="577.14032" gradientTransform="matrix(7.3424628,0,0,7.1563837,-3615.661,-2920.6744)" gradientUnits="userSpaceOnUse" id="linearGradient6450" xlink:href="#linearGradient4391"/>
  <linearGradient y2="440.66302" x2="611.82318" y1="468.36615" x1="552.62543" gradientTransform="matrix(13.858349,0,0,13.858349,-7678.8238,-5953.7294)" gradientUnits="userSpaceOnUse" id="linearGradient6454" xlink:href="#linearGradient4737"/>
  <linearGradient y2="441.86752" x2="598.31567" y1="474.81879" x1="556.15289" gradientTransform="matrix(13.858349,0,0,13.858349,-7678.8238,-5953.7294)" gradientUnits="userSpaceOnUse" id="linearGradient6457" xlink:href="#linearGradient4737"/>
  <linearGradient y2="441.86752" x2="598.31567" y1="474.81879" x1="556.15289" gradientTransform="matrix(13.858349,0,0,13.858349,-7678.8238,-5953.7294)" gradientUnits="userSpaceOnUse" id="linearGradient6460" xlink:href="#linearGradient4737"/>
  <linearGradient y2="441.86752" x2="598.31567" y1="474.81879" x1="556.15289" gradientTransform="matrix(13.858349,0,0,13.858349,-7678.8238,-5953.7294)" gradientUnits="userSpaceOnUse" id="linearGradient6463" xlink:href="#linearGradient4737"/>
  <linearGradient y2="441.86752" x2="598.31567" y1="474.81879" x1="556.15289" gradientTransform="matrix(13.858349,0,0,13.858349,-7678.8238,-5953.7294)" gradientUnits="userSpaceOnUse" id="linearGradient6466" xlink:href="#linearGradient4737"/>
  <linearGradient y2="446.72641" x2="605.47504" y1="471.23438" x1="554.38495" gradientTransform="matrix(13.858349,0,0,13.858349,-7678.1661,-5952.2622)" gradientUnits="userSpaceOnUse" id="linearGradient6491" xlink:href="#linearGradient4959"/>
  <linearGradient y2="446.72641" x2="605.47504" y1="471.23438" x1="554.38495" gradientTransform="matrix(13.858349,0,0,13.858349,-7683.4611,-5970.4167)" gradientUnits="userSpaceOnUse" id="linearGradient6494" xlink:href="#linearGradient4959"/>
  <linearGradient y2="446.72641" x2="605.47504" y1="471.23438" x1="554.38495" gradientTransform="matrix(13.858349,0,0,13.858349,-7687.9998,-5993.1099)" gradientUnits="userSpaceOnUse" id="linearGradient6497" xlink:href="#linearGradient4959"/>
  <linearGradient y2="446.72641" x2="605.47504" y1="471.23438" x1="554.38495" gradientTransform="matrix(13.858349,0,0,13.858349,-7696.3206,-6012.0209)" gradientUnits="userSpaceOnUse" id="linearGradient6500" xlink:href="#linearGradient4959"/>
  <linearGradient y2="446.72641" x2="605.47504" y1="471.23438" x1="554.38495" gradientTransform="matrix(13.858349,0,0,13.858349,-7703.885,-6029.419)" gradientUnits="userSpaceOnUse" id="linearGradient6503" xlink:href="#linearGradient4959"/>
  <linearGradient y2="-0.138222" x2="0.208399" y1="0.892319" x1="0.685668" id="linearGradient8047" xlink:href="#linearGradient4391"/>
  <linearGradient y2="1.188171" x2="0.507247" y1="-0.092349" x1="0.725425" id="linearGradient8051" xlink:href="#linearGradient4737"/>
  <linearGradient y2="-0.103535" x2="-0.00966" y1="0.945353" x1="0.743328" id="linearGradient8055" xlink:href="#linearGradient4671"/>
  <linearGradient y2="0.103004" x2="0.225568" y1="0.9471" x1="0.872712" id="linearGradient8058" xlink:href="#linearGradient4671"/>
  <linearGradient y2="0.267432" x2="0.242642" y1="0.964003" x1="0.727959" id="linearGradient8062" xlink:href="#linearGradient4671"/>
  <linearGradient y2="0.033461" x2="0.333696" y1="0.714854" x1="1.135543" id="linearGradient8065" xlink:href="#linearGradient4369"/>
  <linearGradient y2="0.214169" x2="0.286596" y1="1.231669" x1="1.262779" id="linearGradient8068" xlink:href="#linearGradient4671"/>
  <linearGradient y2="-0.004042" x2="0.29736" y1="1.523611" x1="1.217123" id="linearGradient8071" xlink:href="#linearGradient4671"/>
  <linearGradient y2="0.199394" x2="0.233503" y1="0.919223" x1="0.889373" id="linearGradient8075" xlink:href="#linearGradient4671"/>
  <linearGradient y2="1.084652" x2="1.068072" y1="0.050209" x1="-0.019054" id="linearGradient8079" xlink:href="#linearGradient4355"/>
  <linearGradient y2="-0.289704" x2="0.731723" y1="1.174071" x1="0.356993" id="linearGradient8083" xlink:href="#linearGradient4319"/>
  <linearGradient y2="-1.078876" x2="0.350905" y1="2.759797" x1="0.852465" id="linearGradient8086" xlink:href="#linearGradient4846"/>
  <linearGradient y2="0.49234" x2="1.011069" y1="0.49234" x1="0.000008" id="linearGradient8089" xlink:href="#linearGradient4671"/>
  <linearGradient y2="0.024121" x2="1.021744" y1="0.978158" x1="0.013307" id="linearGradient8093" xlink:href="#linearGradient4959"/>
  <linearGradient y2="0.02412" x2="1.021744" y1="0.978157" x1="0.013306" id="linearGradient8096" xlink:href="#linearGradient4959"/>
  <linearGradient y2="0.02412" x2="1.021744" y1="0.978157" x1="0.013306" id="linearGradient8099" xlink:href="#linearGradient4959"/>
  <linearGradient y2="0.02412" x2="1.021744" y1="0.978157" x1="0.013306" id="linearGradient8102" xlink:href="#linearGradient4959"/>
  <linearGradient y2="0.024119" x2="1.021743" y1="0.978156" x1="0.013306" id="linearGradient8105" xlink:href="#linearGradient4959"/>
  <linearGradient y2="-0.159991" x2="1.153218" y1="0.918426" x1="-0.015251" id="linearGradient8115" xlink:href="#linearGradient4737"/>
  <linearGradient y2="-0.051093" x2="0.894496" y1="1.231622" x1="0.06227" id="linearGradient8118" xlink:href="#linearGradient4737"/>
  <linearGradient y2="0.003788" x2="0.906228" y1="1.286503" x1="0.074001" id="linearGradient8121" xlink:href="#linearGradient4737"/>
  <linearGradient y2="0.051708" x2="0.917959" y1="1.334423" x1="0.085733" id="linearGradient8124" xlink:href="#linearGradient4737"/>
  <linearGradient y2="-0.165025" x2="0.880429" y1="1.11769" x1="0.048203" id="linearGradient8127" xlink:href="#linearGradient4737"/>
  <linearGradient y2="0.279613" x2="0.52073" y1="0.926714" x1="-0.042363" id="linearGradient8139" xlink:href="#linearGradient4229"/>
  <linearGradient y2="0.290197" x2="0.61513" y1="0.903709" x1="0.209614" id="linearGradient8141" xlink:href="#linearGradient4229"/>
 </defs>
 <metadata id="metadata5656">image/svg+xml</metadata>
 <g>
  <title>Layer 1</title>
  <g id="layer1">
   <path fill="#999999" fill-opacity="0.610169" filter="url(#filter4432)" id="path4418" d="m278.900085,195.702377l1.518036,-0.619156l25.416229,59.8573l-1.160309,0.762695l-25.773956,-60.000839z"/>
   <path fill="#999999" fill-opacity="0.618645" filter="url(#filter4271)" d="m25.67948,292.669586l1.388983,-0.669678l29.009567,60.493683l-1.146961,1.301025l-29.251589,-61.125031z" id="path4275"/>
   <path fill="#000000" fill-opacity="0.495763" filter="url(#filter4842)" id="path4824" d="m185.875412,222.189346c30.159027,-10.929367 22.071289,75.751022 53.903244,79.722183c75.889069,9.46759 94.863831,-156.046265 171.2677,-152.667252c23.194092,1.026428 24.51886,49.429672 47.69812,50.75621c67.218781,3.846848 153.82254,-131.175705 153.82254,-131.175705c0,0 -87.041626,133.222885 -154.260345,129.375671c-23.17926,-1.326523 -24.504059,-49.729416 -47.698853,-50.755844c-76.403168,-3.379364 -95.377899,162.134491 -171.2677,152.667236c-31.831238,-3.97113 -23.744202,-90.651886 -53.902527,-79.722168c-38.500305,13.952118 -125.88863,165.714386 -159.030519,142.970123c33.580423,24.543579 120.968752,-127.218323 159.46834,-141.170456z"/>
   <path fill="#000000" fill-opacity="0.495763" filter="url(#filter4842)" id="path4826" d="m163.876862,157.773041c30.159027,-10.929367 22.071289,75.751022 53.903229,79.722153c75.889099,9.467606 94.863831,-156.046242 171.266998,-152.667229c23.194794,1.026421 24.519592,49.429314 47.698853,50.756203c67.21875,3.846848 153.82254,-131.175706 153.82254,-131.175706c0,0 -87.041626,133.222887 -154.260376,129.375688c-23.17926,-1.326538 -24.504028,-49.729439 -47.698853,-50.755852c-76.403168,-3.379013 -95.377899,162.134834 -171.267685,152.667229c-31.831253,-3.97113 -23.744202,-90.651886 -53.902542,-79.722168c-38.50029,13.952118 -125.888618,165.71405 -159.030508,142.970123c33.58042,24.54361 120.968748,-127.218323 159.468344,-141.170441z"/>
   <path fill="#000000" fill-opacity="0.495763" filter="url(#filter4842)" d="m170.752823,172.015747c30.159027,-10.929367 22.071289,75.751022 53.903229,79.722153c75.889084,9.467606 94.863815,-156.046242 171.267014,-152.667229c23.194794,1.026421 24.519562,49.429314 47.698822,50.756203c67.21875,3.846848 153.82251,-131.175705 153.82251,-131.175705c0,0 -87.041565,133.222885 -154.260315,129.375687c-23.179291,-1.326538 -24.504059,-49.729431 -47.698853,-50.755852c-76.403168,-3.379013 -95.37793,162.134819 -171.2677,152.667229c-31.831253,-3.97113 -23.744202,-90.651886 -53.902542,-79.722168c-38.50029,13.952133 -125.888618,165.71405 -159.030509,142.970123c33.58042,24.543945 120.968741,-127.218323 159.468345,-141.170441z" id="path4828"/>
   <path fill="#000000" fill-opacity="0.495763" filter="url(#filter4842)" id="path4830" d="m177.629486,188.327164c30.159027,-10.929367 22.071289,75.751022 53.903229,79.722183c75.889099,9.46759 94.863831,-156.046257 171.266998,-152.667244c23.194824,1.026413 24.519592,49.429314 47.698853,50.756203c67.218719,3.846848 153.82254,-131.175709 153.82254,-131.175709c0,0 -87.041626,133.222889 -154.260376,129.37569c-23.17926,-1.326538 -24.504028,-49.729439 -47.698822,-50.755852c-76.403198,-3.379021 -95.37793,162.134819 -171.267715,152.667229c-31.831238,-3.97113 -23.744202,-90.651886 -53.902527,-79.722168c-38.500305,13.952118 -125.88863,165.71405 -159.030519,142.970123c33.58042,24.543945 120.968752,-127.218323 159.46834,-141.170456z"/>
   <path fill="#000000" fill-opacity="0.495763" filter="url(#filter4842)" d="m182.257004,206.757462c30.159042,-10.929367 22.071289,75.750656 53.903244,79.722153c75.889069,9.46759 94.863831,-156.046234 171.266998,-152.667221c23.194794,1.026413 24.519562,49.429306 47.698853,50.755844c67.21875,3.846848 153.821777,-131.175354 153.821777,-131.175354c0,0 -87.040894,133.222534 -154.259613,129.375687c-23.17926,-1.326538 -24.504028,-49.729431 -47.698853,-50.755844c-76.403168,-3.379028 -95.377899,162.13446 -171.2677,152.66687c-31.831238,-3.97113 -23.744202,-90.651535 -53.903244,-79.722168c-38.499588,13.952484 -125.887909,165.714417 -159.0298,142.97049c33.580421,24.543579 120.96875,-127.218338 159.468338,-141.170456z" id="path4832"/>
   <path fill="#808080" fill-opacity="0.580508" filter="url(#filter4452)" d="m472.252197,132.004883l1.385895,0.519363l-6.756226,61.149887l-1.558777,0l6.582642,-57.5121c-3.899048,7.503647 -16.101532,21.290359 -23.333527,15.409988c-2.272827,-1.847809 -0.99057,-9.546463 3.244415,-8.166016c7.029602,2.291428 12.424194,1.645386 14.37265,-1.527512l6.062927,-9.873611z" id="path4446"/>
   <path fill="#b3b3b3" fill-opacity="0.588983" stroke-width="0.12729" filter="url(#filter4740)" d="m121.525963,245.366486c-3.335938,3.963715 -4.811127,9.764893 -1.605125,12.567322c3.262497,2.851868 9.420288,0.368988 12.697617,-3.118088c3.511063,-3.733505 5.441025,-9.837631 2.222305,-12.769638c-3.361359,-3.0616 -10.093262,-0.506683 -13.314796,3.320404zm11.298698,-1.134811c2.195465,2.0952 0.272568,5.975235 -2.365677,8.72612c-2.188416,2.28093 -6.359039,4.801605 -8.570763,2.792191c-2.285866,-2.076492 -0.319183,-6.33786 2.203957,-8.928787c2.473709,-2.540802 6.549713,-4.673782 8.732483,-2.589523z" id="path4864"/>
   <path fill="#cccccc" fill-opacity="0.461864" filter="url(#filter4299)" id="path4277" d="m50.794411,310.74942c0.402405,1.223572 -0.034405,2.4664 -0.975628,2.77594c-0.941223,0.30954 -2.030437,-0.431427 -2.432842,-1.654999c-0.402401,-1.223602 0.034397,-2.466431 0.97562,-2.77597c0.941223,-0.30954 2.030449,0.431427 2.43285,1.655029z"/>
   <path fill="url(#linearGradient8127)" d="m184.442383,218.544937c30.159058,-10.929443 22.071381,75.7509 53.902924,79.722153c75.889648,9.46759 94.864441,-156.04631 171.267639,-152.667099c23.19458,1.026245 24.519531,49.429352 47.698822,50.75592c67.218445,3.846863 153.821838,-131.175446 153.821838,-131.175446c0,0 -87.041565,133.222626 -154.26001,129.375641c-23.179291,-1.326447 -24.504272,-49.729523 -47.698822,-50.755798c-76.403198,-3.379211 -95.378113,162.134628 -171.267685,152.666977c-31.831512,-3.97113 -23.743942,-90.651596 -53.902847,-79.722092c-38.499832,13.952148 -125.888092,165.714279 -159.030273,142.970139c33.58036,24.543884 120.968552,-127.218277 159.468414,-141.170395z" id="path4415"/>
   <path fill="url(#linearGradient8124)" d="m162.44368,154.128647c30.159042,-10.929504 22.071335,75.750824 53.902954,79.722137c75.889572,9.467621 94.864395,-156.046326 171.267563,-152.66713c23.19458,1.026276 24.519531,49.429337 47.698853,50.755905c67.218445,3.846893 153.821899,-131.175446 153.821899,-131.175446c0,0 -87.041565,133.222687 -154.26004,129.375702c-23.179321,-1.326538 -24.504272,-49.729584 -47.698853,-50.755875c-76.403168,-3.379196 -95.378113,162.134628 -171.267685,152.667007c-31.831467,-3.97113 -23.743896,-90.651642 -53.902817,-79.722137c-38.499901,13.952209 -125.888084,165.71431 -159.030327,142.9702c33.580368,24.543823 120.968613,-127.218338 159.468452,-141.170364z" id="path4413"/>
   <path fill="url(#linearGradient8121)" id="path4411" d="m169.320221,168.37114c30.159088,-10.929504 22.071411,75.750854 53.902969,79.722107c75.889603,9.467606 94.864365,-156.04631 171.267563,-152.667084c23.19458,1.026276 24.519592,49.429352 47.698822,50.75592c67.218445,3.846863 153.821899,-131.175491 153.821899,-131.175491c0,0 -87.041565,133.222702 -154.26001,129.375717c-23.179321,-1.326508 -24.504272,-49.729584 -47.698853,-50.755829c-76.403198,-3.379242 -95.378113,162.134583 -171.2677,152.666962c-31.831482,-3.9711 -23.743912,-90.651642 -53.902832,-79.722107c-38.499878,13.952209 -125.888069,165.714249 -159.030251,142.970169c33.58036,24.543823 120.968544,-127.218277 159.468391,-141.170364z"/>
   <path fill="url(#linearGradient8118)" d="m176.196777,184.682663c30.159073,-10.929504 22.071381,75.75087 53.902939,79.722122c75.889633,9.46759 94.864365,-156.04631 171.267624,-152.66713c23.19455,1.026276 24.519531,49.429352 47.698792,50.755981c67.218475,3.846863 153.821869,-131.175522 153.821869,-131.175522c0,0 -87.041504,133.222672 -154.26001,129.375717c-23.179321,-1.326538 -24.504272,-49.729614 -47.698853,-50.755829c-76.403168,-3.379211 -95.378113,162.134567 -171.2677,152.666916c-31.831482,-3.971069 -23.743912,-90.651535 -53.902802,-79.722092c-38.499908,13.952209 -125.888092,165.71431 -159.030266,142.9702c33.58036,24.543823 120.968559,-127.218277 159.468407,-141.170364z" id="path4409"/>
   <path fill="url(#linearGradient8115)" id="path2816-5" d="m180.824371,203.112961c30.159058,-10.929443 22.071381,75.750931 53.902924,79.722183c75.889648,9.467529 94.864471,-156.04631 171.267639,-152.66713c23.19458,1.026215 24.519531,49.429352 47.698792,50.75592c67.218445,3.846863 153.821899,-131.175461 153.821899,-131.175461c0,0 -87.041565,133.22261 -154.26004,129.375656c-23.179291,-1.326477 -24.504272,-49.729553 -47.698822,-50.755829c-76.403198,-3.379181 -95.378113,162.134598 -171.2677,152.666977c-31.831512,-3.97113 -23.743927,-90.651596 -53.902832,-79.722092c-38.499847,13.952179 -125.888092,165.71434 -159.030273,142.970108c33.58036,24.543915 120.968552,-127.218246 159.468414,-141.170334z"/>
   <path fill="#cccccc" fill-opacity="0.372881" filter="url(#filter4498)" d="m572.336609,69.515129l4.0224,3.254074l8.677246,-10.80146l-4.112671,-3.20892l-8.586975,10.756306z" id="path4474"/>
   <path fill="url(#linearGradient8139)" d="m48.580528,310.206573c0.402405,1.223602 -0.034405,2.466431 -0.975628,2.77597c-0.941223,0.30954 -2.030437,-0.431427 -2.432842,-1.655029c-0.402401,-1.223572 0.034397,-2.4664 0.97562,-2.77594c0.941223,-0.30954 2.030449,0.431427 2.43285,1.654999z" id="path3887"/>
   <path fill="#b3b3b3" fill-opacity="0.461864" filter="url(#filter4299)" d="m55.961861,323.303772c0.402405,1.223602 -0.034405,2.466431 -0.975628,2.77597c-0.941223,0.30954 -2.030437,-0.431427 -2.432842,-1.655029c-0.402401,-1.223572 0.034397,-2.4664 0.97562,-2.77594c0.941223,-0.30954 2.030449,0.431427 2.43285,1.654999z" id="path4303"/>
   <path fill="url(#linearGradient8141)" d="m53.124931,322.876251c0.402405,1.223602 -0.034405,2.466431 -0.975628,2.77597c-0.941223,0.30954 -2.030437,-0.431427 -2.432842,-1.655029c-0.402401,-1.223572 0.034397,-2.4664 0.97562,-2.77594c0.941223,-0.30954 2.030449,0.431427 2.43285,1.654999z" id="path3887-0"/>
   <path fill="#999999" fill-opacity="0.605932" filter="url(#filter4470)" id="path4456" d="m539.108215,152.374252c-6.594238,-2.943619 -17.593933,5.089737 -14.71814,10.301254c3.292908,5.96611 18.606262,3.077316 19.188538,-7.556l-19.242981,-46.380333l-27.51825,16.870361l18.21405,45.183846c-8.086212,-2.792694 -17.942444,5.385971 -14.030731,10.815506c3.888855,5.398285 19.948212,1.994156 17.817352,-9.264633l-17.360199,-43.648087l22.332062,-14.685753l15.318298,38.363838z"/>
   <path fill="#b3b3b3" fill-opacity="0.555085" filter="url(#filter4490)" d="m532.257813,73.437904l1.549988,-0.655525l27.096924,60.753876l-1.178894,0.797134l-27.468018,-60.895485z" id="path4484"/>
   <path fill="#808080" fill-opacity="0.610169" filter="url(#filter4351)" id="path4333" d="m270.885193,246.24408c1.572479,-12.506424 0.60614,-21.019623 -19.986526,-26.586731l20.557175,58.800293c-1.151154,14.523773 -17.282196,14.479492 -20.541367,7.906525c-3.024078,-6.099823 7.968887,-15.05191 17.378494,-10.730469l-20.198074,-59.294907c24.612259,4.348312 33.801193,7.043152 22.790298,29.905289z"/>
   <path fill="url(#linearGradient8105)" id="path5017" d="m163.519653,155.354294c30.159073,-10.929443 22.071381,75.750885 53.902924,79.722168c75.889648,9.46756 94.864471,-156.04631 171.26767,-152.667114c23.19458,1.02623 24.519531,49.429352 47.698792,50.75592c67.218445,3.846863 153.821899,-131.175461 153.821899,-131.175461c0,0 -87.041565,133.22261 -154.26004,129.375656c-23.179321,-1.326477 -24.504272,-49.729538 -47.698822,-50.755829c-76.403198,-3.379196 -95.378143,162.134613 -171.267715,152.666992c-31.831497,-3.97113 -23.743927,-90.651581 -53.902832,-79.722107c-38.499825,13.952148 -125.888077,165.71431 -159.030251,142.970139c33.580353,24.543884 120.968536,-127.218277 159.468376,-141.170364z"/>
   <path fill="url(#linearGradient8102)" d="m169.834869,169.879349c30.159103,-10.929443 22.071396,75.750916 53.902969,79.722168c75.889603,9.467575 94.864426,-156.046326 171.267624,-152.667114c23.19458,1.026215 24.519531,49.429352 47.698792,50.75592c67.218475,3.846863 153.821869,-131.175476 153.821869,-131.175476c0,0 -87.041504,133.222626 -154.26001,129.375671c-23.179321,-1.326477 -24.504272,-49.729523 -47.698853,-50.755829c-76.403168,-3.379181 -95.378113,162.134659 -171.2677,152.667023c-31.831482,-3.971191 -23.743896,-90.651642 -53.902802,-79.722137c-38.499847,13.952179 -125.8881,165.71431 -159.030281,142.970108c33.58036,24.543915 120.968544,-127.218246 159.468391,-141.170334z" id="path5013"/>
   <path fill="url(#linearGradient8099)" id="path5009" d="m176.781647,185.667496c30.159103,-10.929443 22.071381,75.75087 53.902954,79.722183c75.889618,9.46756 94.864441,-156.04631 171.267609,-152.66713c23.19458,1.026245 24.519562,49.429352 47.698822,50.75592c67.218475,3.846863 153.821869,-131.175461 153.821869,-131.175461c0,0 -87.041565,133.22261 -154.26001,129.375656c-23.179321,-1.326477 -24.504303,-49.729553 -47.698853,-50.755829c-76.403198,-3.379181 -95.378143,162.134659 -171.267685,152.667007c-31.831497,-3.971191 -23.743942,-90.651627 -53.902847,-79.722092c-38.499817,13.952118 -125.888069,165.714279 -159.030251,142.970078c33.58036,24.543884 120.968544,-127.218246 159.468391,-141.170334z"/>
   <path fill="url(#linearGradient8096)" d="m180.570831,204.613235c30.159058,-10.929443 22.071381,75.7509 53.902924,79.722153c75.889648,9.46756 94.864441,-156.04631 171.267639,-152.667099c23.19458,1.026215 24.519531,49.429352 47.698792,50.75592c67.218445,3.846863 153.821899,-131.175461 153.821899,-131.175461c0,0 -87.041565,133.22261 -154.26004,129.375626c-23.179321,-1.326447 -24.504272,-49.729523 -47.698853,-50.755798c-76.403168,-3.379181 -95.378113,162.134628 -171.2677,152.667007c-31.831482,-3.971191 -23.743927,-90.651627 -53.902802,-79.722122c-38.499832,13.952148 -125.888084,165.71431 -159.030266,142.970108c33.58036,24.543884 120.968559,-127.218246 159.468407,-141.170334z" id="path5005"/>
   <path fill="url(#linearGradient8093)" id="path4935" d="m184.991516,219.769791c30.159058,-10.929443 22.071381,75.75087 53.902924,79.722153c75.889648,9.46759 94.864441,-156.04628 171.267639,-152.667099c23.19458,1.026215 24.519531,49.429352 47.698761,50.755951c67.218506,3.846832 153.821899,-131.175491 153.821899,-131.175491c0,0 -87.041565,133.222641 -154.26001,129.375626c-23.179321,-1.326447 -24.504272,-49.729523 -47.698853,-50.755798c-76.403168,-3.379181 -95.378082,162.134598 -171.2677,152.667007c-31.831467,-3.971161 -23.743896,-90.651627 -53.902802,-79.722122c-38.499847,13.952179 -125.888084,165.71431 -159.030266,142.970108c33.58036,24.543945 120.968559,-127.218246 159.468407,-141.170334z"/>
   <path fill="#b3b3b3" fill-opacity="0.580508" filter="url(#filter4199)" d="m96.489647,271.971283c-2.267502,-12.399231 -5.752449,-20.22641 -27.066017,-19.332764l37.312523,49.878448c3.277328,14.196106 -12.118553,19.012512 -17.206497,13.726135c-4.720734,-4.905396 3.065475,-16.753143 13.340225,-15.466156l-37.119034,-50.458542c24.779449,-3.266022 34.352974,-3.464096 30.7388,21.652878z" id="path4780"/>
   <path fill="url(#linearGradient8089)" id="path4216" d="m89.381981,269.940277c-2.267258,-12.399261 -5.752441,-20.226334 -27.06572,-19.332626l37.312073,49.878311c3.277298,14.196014 -12.118713,19.012451 -17.206085,13.726074c-4.720856,-4.905487 3.065445,-16.75293 13.339584,-15.466125l-37.118797,-50.458389c24.779182,-3.266266 34.353035,-3.464294 30.738945,21.652756z"/>
   <path fill="url(#linearGradient8086)" stroke-width="0.12729" id="path2874-8-4" d="m117.316597,242.100143c-3.379654,4.066071 -4.87352,10.017242 -1.625916,12.892059c3.30513,2.925766 9.542572,0.378571 12.863152,-3.198578c3.556366,-3.830017 5.511688,-10.09201 2.250717,-13.099731c-3.40522,-3.1409 -10.224709,-0.519714 -13.487953,3.40625zm11.44619,-1.164368c2.223663,2.149384 0.275269,6.129761 -2.397102,8.951965c-2.216705,2.339661 -6.441391,4.92569 -8.682373,2.86441c-2.31572,-2.130249 -0.323669,-6.501953 2.232529,-9.159851c2.506104,-2.606262 6.635376,-4.794464 8.846947,-2.656525z"/>
   <path fill="url(#linearGradient8083)" d="m266.388031,243.99559c1.572357,-12.50647 0.606232,-21.019653 -19.986481,-26.58667l20.557312,58.800156c-1.151215,14.523834 -17.282257,14.479584 -20.541351,7.906525c-3.024139,-6.099701 7.968842,-15.05188 17.378387,-10.730408l-20.198196,-59.294968c24.61232,4.34845 33.801224,7.043152 22.790329,29.905365z" id="path4220"/>
   <path fill="#999999" fill-opacity="0.648305" filter="url(#filter4407)" d="m314.986023,188.273758c5.790955,2.583786 15.389587,-4.602539 12.84552,-9.217911c-2.913055,-5.28389 -16.314819,-2.646683 -16.77478,6.800323l17.076965,41.105057l24.028259,-15.112183l-16.170044,-40.047165c7.097076,2.443054 15.693176,-4.866974 12.240753,-9.671387c-3.432404,-4.776489 -17.485291,-1.678253 -15.565643,8.311661l15.414551,38.687119l-19.494934,13.147537l-13.600647,-34.003052z" id="path4405"/>
   <path fill="url(#linearGradient8079)" id="path4222" d="m309.931519,187.524948c5.790955,2.583771 15.389526,-4.6026 12.845337,-9.217926c-2.91275,-5.283875 -16.314789,-2.646606 -16.774567,6.800415l17.076782,41.105042l24.028259,-15.112183l-16.170074,-40.04715c7.097229,2.443024 15.693359,-4.867096 12.240936,-9.671448c-3.432434,-4.77652 -17.485413,-1.678345 -15.565491,8.311646l15.414368,38.687073l-19.494751,13.147644l-13.6008,-34.003113z"/>
   <path fill="#999999" fill-opacity="0.622881" filter="url(#filter4414)" d="m344.050781,126.219734c9.081024,4.095482 10.06073,11.399178 10.87912,12.084572l12.840942,1.815475c-17.075928,1.614822 -6.683502,17.527283 7.605194,16.755447c-18.32901,-10.606964 -11.589294,-8.648117 -4.354126,-17.295715c-11.723145,-4.823929 -7.607635,-11.937515 -11.017914,-12.545425l-15.953217,-0.814529l0,0l0,0.000175z" id="path4412"/>
   <path fill="url(#linearGradient8075)" id="path3931" d="m337.302917,124.720322c9.080963,4.095551 10.060791,11.39917 10.87912,12.084564l12.840851,1.815552c-17.075958,1.614838 -6.683319,17.527161 7.605286,16.755463c-18.329071,-10.607117 -11.589172,-8.648224 -4.354187,-17.295776c-11.723236,-4.823914 -7.607635,-11.937531 -11.017853,-12.545441l-15.953217,-0.814484l0,0l0,0.000122z"/>
   <path fill="#999999" fill-opacity="0.644068" filter="url(#filter4442)" id="path4436" d="m393.944672,156.841507c14.720551,-15.479034 8.68573,-23.804398 1.75766,-33.236137c23.162781,14.167976 14.04834,21.905128 -2.39682,37.071053l-16.777954,-62.797043c0.93399,-13.640717 19.670258,-13.059685 22.050934,-4.953583c1.941803,6.610573 -9.867798,10.93692 -18.855042,8.468391l14.221222,55.447319z"/>
   <path fill="url(#linearGradient8071)" d="m388.085327,150.689346c14.720703,-15.478973 8.685852,-23.804474 1.757629,-33.236145c23.162964,14.16803 14.048187,21.905151 -2.396851,37.071075l-16.777802,-62.79715c0.933716,-13.64064 19.670044,-13.059555 22.050903,-4.953506c1.94162,6.61055 -9.86795,10.936874 -18.855164,8.468338l14.221283,55.447388z" id="path4228"/>
   <path fill="url(#linearGradient8068)" id="path4230" d="m469.311768,128.472794l1.385803,0.519287l-6.755981,61.149963l-1.559021,0l6.582642,-57.512146c-3.899109,7.503632 -16.101532,21.290375 -23.333557,15.410004c-2.272552,-1.847839 -0.990448,-9.546387 3.244659,-8.165985c7.029419,2.291382 12.423981,1.645477 14.372345,-1.527435l6.06311,-9.873688z"/>
   <path fill="url(#linearGradient8065)" d="m532.22467,149.726669c-6.59436,-2.943604 -17.593933,5.089783 -14.717896,10.301208c3.292664,5.966217 18.60614,3.077362 19.188354,-7.555939l-19.243042,-46.380341l-27.51825,16.87027l18.214233,45.183868c-8.086243,-2.792694 -17.942627,5.385925 -14.030945,10.815521c3.888794,5.398315 19.948303,1.994171 17.817444,-9.264526l-17.360107,-43.648132l22.331787,-14.68573l15.31842,38.3638z" id="path4224"/>
   <path fill="url(#linearGradient8062)" id="path4437" d="m567.487854,68.91449l4.022339,3.254028l8.677368,-10.801514l-4.112732,-3.208786l-8.586975,10.756271z"/>
   <path fill="#999999" fill-opacity="0.618645" filter="url(#filter4271)" id="path4269" d="m30.284752,289.968781l1.377316,-0.666809l28.765896,60.233795l-1.137325,1.295288l-29.005886,-60.862274z"/>
   <path fill="url(#linearGradient8058)" d="m28.276657,291.029907l1.372871,-0.665955l28.675377,60.154266l-1.133766,1.29364l-28.914482,-60.781952z" id="path4755"/>
   <path fill="url(#linearGradient8055)" id="path4768" d="m24.029785,293.391357l1.415703,-0.648376l28.897949,61.083496l-1.603783,0.500305l-28.709869,-60.935425z"/>
   <path fill="#cccccc" fill-opacity="0.639831" filter="url(#filter4183)" d="m176.902023,246.413101c14.720551,-15.479034 8.68573,-23.804581 1.757675,-33.23613c23.16275,14.167969 14.047974,21.905121 -2.396851,37.071045l-16.777954,-62.797226c0.933655,-13.640533 19.670258,-13.059509 22.050949,-4.9534c1.941803,6.61058 -9.867813,10.936752 -18.855026,8.468384l14.221207,55.447327z" id="path4161"/>
   <path fill="url(#linearGradient8051)" id="path4226" d="m171.545197,243.495071c14.720718,-15.478973 8.685883,-23.804535 1.757584,-33.236115c23.162949,14.167999 14.048233,21.90506 -2.396805,37.071075l-16.777802,-62.79715c0.93367,-13.640656 19.670013,-13.05957 22.050842,-4.953522c1.941696,6.610565 -9.86792,10.936859 -18.855103,8.468353l14.221283,55.447357z"/>
   <path fill="#7c4000" d="m276.466614,197.761795l1.518066,-0.619263l25.416107,59.857407l-1.160309,0.762695l-25.773865,-60.000839z" id="path4764"/>
   <path fill="url(#linearGradient8047)" id="path4753" d="m529.022705,74.931076l1.549866,-0.655579l27.097168,60.753845l-1.178894,0.797211l-27.46814,-60.895477z"/>
  </g>
 </g>
</svg>